<?xml version="1.0" standalone="no"?>
<!DOCTYPE svg PUBLIC "-//W3C//DTD SVG 20010904//EN"
 "http://www.w3.org/TR/2001/REC-SVG-20010904/DTD/svg10.dtd">
<svg version="1.0" xmlns="http://www.w3.org/2000/svg"
 width="792.000000pt" height="612.000000pt" viewBox="0 0 792.000000 612.000000"
 preserveAspectRatio="xMidYMid meet">

<g transform="translate(0.000000,612.000000) scale(0.100000,-0.100000)"
fill="#ffffff" stroke="none">
<path d="M2885 4642 c-38 -32 -178 -145 -310 -251 -256 -206 -279 -227 -268
-245 4 -6 -1 -5 -11 3 -15 12 -17 12 -14 0 2 -8 -3 -13 -11 -11 -9 2 -11 -3
-7 -14 8 -20 -22 -56 -38 -47 -7 3 -6 1 1 -7 9 -10 8 -18 -7 -38 -11 -14 -20
-30 -20 -37 0 -7 -9 -23 -19 -36 -10 -14 -31 -45 -45 -71 l-26 -47 0 -1293 0
-1294 123 -99 c67 -54 258 -208 425 -342 l302 -244 0 2066 c0 1136 -1 2065 -2
2065 -2 -1 -34 -27 -73 -58z"/>
<path d="M2197 4065 c-4 -8 -3 -16 1 -19 4 -3 9 4 9 15 2 23 -3 25 -10 4z"/>
<path d="M4823 4051 c-79 -20 -109 -62 -123 -174 -5 -39 -10 -330 -10 -644 l0
-573 100 0 99 0 3 153 3 152 83 3 82 3 0 -156 0 -155 106 0 105 0 -4 618 c-4
644 -5 661 -48 716 -40 51 -72 60 -224 63 -77 1 -155 -2 -172 -6z m220 -190
c9 -9 13 -114 15 -366 l3 -355 -86 0 -86 0 3 351 3 351 25 20 c19 16 35 19 68
15 24 -3 49 -10 55 -16z"/>
<path d="M3120 3355 l0 -695 100 0 100 0 0 695 0 695 -100 0 -100 0 0 -695z"/>
<path d="M3480 3356 l0 -698 223 4 c238 4 255 7 305 60 43 46 45 72 49 558 6
636 -1 689 -100 739 -44 22 -62 24 -262 29 l-215 5 0 -697z m348 491 c16 -16
17 -57 20 -485 1 -363 -1 -473 -11 -492 -11 -23 -19 -25 -85 -28 l-72 -3 0
517 0 516 65 -4 c44 -3 71 -10 83 -21z"/>
<path d="M4197 4044 c-4 -4 -7 -317 -7 -696 l0 -688 200 0 200 0 0 90 0 90
-95 0 -95 0 0 335 0 335 90 0 90 0 0 85 0 85 -90 0 -90 0 0 95 0 94 93 3 92 3
0 85 0 85 -191 3 c-104 1 -193 -1 -197 -4z"/>
<path d="M5410 3355 l0 -695 205 0 205 0 0 90 0 90 -105 0 -105 0 0 605 0 605
-100 0 -100 0 0 -695z"/>
<path d="M3813 2553 c-12 -2 -34 -18 -48 -34 -25 -30 -25 -32 -25 -216 l0
-185 29 -29 c24 -23 38 -29 75 -29 56 0 91 15 105 47 7 15 11 94 11 206 0 205
-4 219 -68 237 -38 10 -41 10 -79 3z m112 -44 c18 -17 20 -35 23 -160 6 -234
-7 -269 -98 -269 -37 0 -55 5 -70 20 -19 19 -20 33 -20 199 0 99 3 187 6 196
18 45 119 54 159 14z"/>
<path d="M5050 2547 c-60 -20 -70 -56 -70 -240 0 -216 14 -247 115 -247 102 0
115 27 115 244 0 91 -4 176 -10 190 -18 49 -89 74 -150 53z m87 -17 c47 -17
53 -44 53 -229 0 -155 -2 -170 -21 -195 -17 -22 -28 -26 -73 -26 -87 0 -90 9
-94 214 -3 185 3 210 48 233 31 16 48 16 87 3z"/>
<path d="M3122 2303 c1 -137 4 -200 5 -140 l4 107 50 0 c27 0 63 7 78 15 31
16 61 77 61 125 0 48 -30 109 -61 125 -15 8 -53 15 -84 15 l-55 0 2 -247z
m129 217 c64 -35 64 -185 0 -220 -11 -5 -42 -10 -70 -10 l-51 0 0 120 0 120
51 0 c28 0 59 -5 70 -10z"/>
<path d="M3440 2311 c0 -149 4 -242 10 -246 6 -4 10 32 10 100 l0 106 47 -3
47 -3 44 -100 c47 -107 49 -111 57 -103 3 3 -15 50 -39 106 l-45 101 33 33
c60 60 57 170 -5 222 -26 22 -40 26 -95 26 l-64 0 0 -239z m155 195 c45 -45
45 -147 0 -192 -20 -20 -34 -24 -80 -24 l-55 0 0 120 0 120 55 0 c46 0 60 -4
80 -24z"/>
<path d="M4060 2304 l0 -246 71 4 c65 3 74 6 100 36 l29 32 0 171 c0 230 -10
249 -134 249 l-66 0 0 -246z m159 200 c19 -25 21 -40 21 -198 -1 -119 -4 -176
-13 -187 -20 -26 -53 -39 -101 -39 l-46 0 0 225 0 225 59 0 c52 0 62 -3 80
-26z"/>
<path d="M4390 2334 l0 -216 29 -29 c52 -51 128 -33 157 37 17 41 21 424 4
424 -6 0 -10 -71 -10 -194 0 -200 -7 -249 -40 -266 -31 -16 -79 -11 -100 10
-19 19 -20 33 -20 235 0 137 -4 215 -10 215 -6 0 -10 -79 -10 -216z"/>
<path d="M4680 2540 c0 -5 25 -10 55 -10 l55 0 0 -236 c0 -154 3 -233 10 -229
6 4 10 93 10 236 l0 229 50 0 c28 0 50 5 50 10 0 6 -45 10 -115 10 -70 0 -115
-4 -115 -10z"/>
<path d="M5310 2311 c0 -149 4 -242 10 -246 6 -4 10 32 10 100 l0 106 47 -3
48 -3 40 -92 c35 -80 65 -131 65 -110 0 4 -20 52 -45 109 -44 99 -46 117 -12
118 13 0 47 83 47 117 0 51 -29 112 -61 128 -15 8 -55 15 -89 15 l-60 0 0
-239z m155 195 c28 -28 40 -81 30 -132 -11 -59 -44 -84 -110 -84 l-55 0 0 120
0 120 55 0 c46 0 60 -4 80 -24z"/>
<path d="M5660 2328 c-57 -292 -55 -275 -41 -263 6 6 17 40 24 75 l13 65 56 3
56 3 12 -58 c16 -81 20 -94 29 -88 5 2 -11 102 -35 222 -53 265 -53 263 -62
263 -4 0 -27 -100 -52 -222z m99 -80 c1 -15 -8 -18 -50 -18 -43 0 -50 2 -45
18 2 9 9 43 15 75 6 31 16 83 23 115 l11 57 23 -115 c13 -63 23 -123 23 -132z"/>
</g>
</svg>
