<svg version="1" xmlns="http://www.w3.org/2000/svg" width="1056" height="816" viewBox="0 0 792.000000 612.000000"><path d="M288.5 147.8c-3.8 3.2-17.8 14.5-31 25.1-25.6 20.6-27.9 22.7-26.8 24.5.4.6-.1.5-1.1-.3-1.5-1.2-1.7-1.2-1.4 0 .2.8-.3 1.3-1.1 1.1-.9-.2-1.1.3-.7 1.4.8 2-2.2 5.6-3.8 4.7-.7-.3-.6-.1.1.7.9 1 .8 1.8-.7 3.8-1.1 1.4-2 3-2 3.7 0 .7-.9 2.3-1.9 3.6-1 1.4-3.1 4.5-4.5 7.1l-2.6 4.7v258.7l12.3 9.9c6.7 5.4 25.8 20.8 42.5 34.2l30.2 24.4V348.5c0-113.6-.1-206.5-.2-206.5-.2.1-3.4 2.7-7.3 5.8zm-68.8 57.7c-.4.8-.3 1.6.1 1.9.4.3.9-.4.9-1.5.2-2.3-.3-2.5-1-.4zm262.6 1.4c-7.9 2-10.9 6.2-12.3 17.4-.5 3.9-1 33-1 64.4V346h19.9l.3-15.3.3-15.2 8.3-.3 8.2-.3V346h21.1l-.4-61.8c-.4-64.4-.5-66.1-4.8-71.6-4-5.1-7.2-6-22.4-6.3-7.7-.1-15.5.2-17.2.6zm22 19c.9.9 1.3 11.4 1.5 36.6l.3 35.5h-17.2l.3-35.1.3-35.1 2.5-2c1.9-1.6 3.5-1.9 6.8-1.5 2.4.3 4.9 1 5.5 1.6zM312 276.5V346h20V207h-20v69.5zm36-.1v69.8l22.3-.4c23.8-.4 25.5-.7 30.5-6 4.3-4.6 4.5-7.2 4.9-55.8.6-63.6-.1-68.9-10-73.9-4.4-2.2-6.2-2.4-26.2-2.9l-21.5-.5v69.7zm34.8-49.1c1.6 1.6 1.7 5.7 2 48.5.1 36.3-.1 47.3-1.1 49.2-1.1 2.3-1.9 2.5-8.5 2.8l-7.2.3V224.8l6.5.4c4.4.3 7.1 1 8.3 2.1zm36.9-19.7c-.4.4-.7 31.7-.7 69.6V346h40v-18h-19v-67h18v-17h-18v-18.9l9.3-.3 9.2-.3v-17l-19.1-.3c-10.4-.1-19.3.1-19.7.4zM541 276.5V346h41v-18h-21V207h-20v69.5zm-159.7 80.2c-1.2.2-3.4 1.8-4.8 3.4-2.5 3-2.5 3.2-2.5 21.6v18.5l2.9 2.9c2.4 2.3 3.8 2.9 7.5 2.9 5.6 0 9.1-1.5 10.5-4.7.7-1.5 1.1-9.4 1.1-20.6 0-20.5-.4-21.9-6.8-23.7-3.8-1-4.1-1-7.9-.3zm11.2 4.4c1.8 1.7 2 3.5 2.3 16 .6 23.4-.7 26.9-9.8 26.9-3.7 0-5.5-.5-7-2-1.9-1.9-2-3.3-2-19.9 0-9.9.3-18.7.6-19.6 1.8-4.5 11.9-5.4 15.9-1.4zm112.5-3.8c-6 2-7 5.6-7 24 0 21.6 1.4 24.7 11.5 24.7 10.2 0 11.5-2.7 11.5-24.4 0-9.1-.4-17.6-1-19-1.8-4.9-8.9-7.4-15-5.3zm8.7 1.7c4.7 1.7 5.3 4.4 5.3 22.9 0 15.5-.2 17-2.1 19.5-1.7 2.2-2.8 2.6-7.3 2.6-8.7 0-9-.9-9.4-21.4-.3-18.5.3-21 4.8-23.3 3.1-1.6 4.8-1.6 8.7-.3zm-201.5 22.7c.1 13.7.4 20 .5 14l.4-10.7h5c2.7 0 6.3-.7 7.8-1.5 3.1-1.6 6.1-7.7 6.1-12.5s-3-10.9-6.1-12.5c-1.5-.8-5.3-1.5-8.4-1.5H312l.2 24.7zm12.9-21.7c6.4 3.5 6.4 18.5 0 22-1.1.5-4.2 1-7 1H313v-24h5.1c2.8 0 5.9.5 7 1zm18.9 20.9c0 14.9.4 24.2 1 24.6.6.4 1-3.2 1-10v-10.6l4.7.3 4.7.3 4.4 10c4.7 10.7 4.9 11.1 5.7 10.3.3-.3-1.5-5-3.9-10.6l-4.5-10.1 3.3-3.3c6-6 5.7-17-.5-22.2-2.6-2.2-4-2.6-9.5-2.6H344v23.9zm15.5-19.5c4.5 4.5 4.5 14.7 0 19.2-2 2-3.4 2.4-8 2.4H346v-24h5.5c4.6 0 6 .4 8 2.4zm46.5 20.2v24.6l7.1-.4c6.5-.3 7.4-.6 10-3.6l2.9-3.2v-17.1c0-23-1-24.9-13.4-24.9H406v24.6zm15.9-20c1.9 2.5 2.1 4 2.1 19.8-.1 11.9-.4 17.6-1.3 18.7-2 2.6-5.3 3.9-10.1 3.9H408v-45h5.9c5.2 0 6.2.3 8 2.6zm17.1 17v21.6l2.9 2.9c5.2 5.1 12.8 3.3 15.7-3.7 1.7-4.1 2.1-42.4.4-42.4-.6 0-1 7.1-1 19.4 0 20-.7 24.9-4 26.6-3.1 1.6-7.9 1.1-10-1-1.9-1.9-2-3.3-2-23.5 0-13.7-.4-21.5-1-21.5s-1 7.9-1 21.6zm29-20.6c0 .5 2.5 1 5.5 1h5.5v23.6c0 15.4.3 23.3 1 22.9.6-.4 1-9.3 1-23.6V359h5c2.8 0 5-.5 5-1 0-.6-4.5-1-11.5-1s-11.5.4-11.5 1zm63 22.9c0 14.9.4 24.2 1 24.6.6.4 1-3.2 1-10v-10.6l4.7.3 4.8.3 4 9.2c3.5 8 6.5 13.1 6.5 11 0-.4-2-5.2-4.5-10.9-4.4-9.9-4.6-11.7-1.2-11.8 1.3 0 4.7-8.3 4.7-11.7 0-5.1-2.9-11.2-6.1-12.8-1.5-.8-5.5-1.5-8.9-1.5h-6v23.9zm15.5-19.5c2.8 2.8 4 8.1 3 13.2-1.1 5.9-4.4 8.4-11 8.4H533v-24h5.5c4.6 0 6 .4 8 2.4zm19.5 17.8c-5.7 29.2-5.5 27.5-4.1 26.3.6-.6 1.7-4 2.4-7.5l1.3-6.5 5.6-.3 5.6-.3 1.2 5.8c1.6 8.1 2 9.4 2.9 8.8.5-.2-1.1-10.2-3.5-22.2-5.3-26.5-5.3-26.3-6.2-26.3-.4 0-2.7 10-5.2 22.2zm9.9 8c.1 1.5-.8 1.8-5 1.8-4.3 0-5-.2-4.5-1.8.2-.9.9-4.3 1.5-7.5.6-3.1 1.6-8.3 2.3-11.5l1.1-5.7 2.3 11.5c1.3 6.3 2.3 12.3 2.3 13.2z" fill="#fff"/></svg>